<mxfile host="app.diagrams.net" modified="2024-04-23T02:04:41.526Z" agent="Mozilla/5.0 (Windows NT 10.0; Win64; x64) AppleWebKit/537.36 (KHTML, like Gecko) Chrome/124.0.0.0 Safari/537.36" etag="IiJUWuXq4g25SRz3lKyb" version="24.2.7" type="device">
  <diagram name="Page-1" id="na6ImbBj4kVJwXRNXc0v">
    <mxGraphModel dx="1050" dy="583" grid="1" gridSize="10" guides="1" tooltips="1" connect="1" arrows="1" fold="1" page="1" pageScale="1" pageWidth="850" pageHeight="1100" math="0" shadow="0">
      <root>
        <mxCell id="0" />
        <mxCell id="1" parent="0" />
        <mxCell id="m_cOD-OieFXr8Xbk8-xM-1" value="" style="rounded=0;whiteSpace=wrap;html=1;" vertex="1" parent="1">
          <mxGeometry x="30" y="120" width="670" height="360" as="geometry" />
        </mxCell>
        <mxCell id="m_cOD-OieFXr8Xbk8-xM-6" style="edgeStyle=orthogonalEdgeStyle;rounded=0;orthogonalLoop=1;jettySize=auto;html=1;entryX=0;entryY=0.5;entryDx=0;entryDy=0;" edge="1" parent="1" source="m_cOD-OieFXr8Xbk8-xM-2" target="m_cOD-OieFXr8Xbk8-xM-3">
          <mxGeometry relative="1" as="geometry">
            <Array as="points">
              <mxPoint x="120" y="220" />
            </Array>
          </mxGeometry>
        </mxCell>
        <mxCell id="m_cOD-OieFXr8Xbk8-xM-2" value="" style="rounded=0;whiteSpace=wrap;html=1;fillColor=#dae8fc;gradientColor=#7ea6e0;strokeColor=#6c8ebf;" vertex="1" parent="1">
          <mxGeometry x="60" y="280" width="120" height="60" as="geometry" />
        </mxCell>
        <mxCell id="m_cOD-OieFXr8Xbk8-xM-3" value="" style="rounded=1;whiteSpace=wrap;html=1;fillColor=#f8cecc;gradientColor=#ea6b66;strokeColor=#b85450;" vertex="1" parent="1">
          <mxGeometry x="200" y="190" width="120" height="60" as="geometry" />
        </mxCell>
        <mxCell id="m_cOD-OieFXr8Xbk8-xM-4" value="&lt;b&gt;Script-1&lt;/b&gt;" style="text;html=1;align=center;verticalAlign=middle;resizable=0;points=[];autosize=1;strokeColor=none;fillColor=none;" vertex="1" parent="1">
          <mxGeometry x="85" y="340" width="70" height="30" as="geometry" />
        </mxCell>
        <mxCell id="m_cOD-OieFXr8Xbk8-xM-5" value="&lt;b&gt;Script-2&lt;/b&gt;" style="text;html=1;align=center;verticalAlign=middle;resizable=0;points=[];autosize=1;strokeColor=none;fillColor=none;" vertex="1" parent="1">
          <mxGeometry x="225" y="160" width="70" height="30" as="geometry" />
        </mxCell>
        <mxCell id="m_cOD-OieFXr8Xbk8-xM-8" value="&lt;b&gt;1415&lt;/b&gt;" style="text;html=1;align=center;verticalAlign=middle;resizable=0;points=[];autosize=1;strokeColor=none;fillColor=none;" vertex="1" parent="1">
          <mxGeometry x="95" y="360" width="50" height="30" as="geometry" />
        </mxCell>
        <mxCell id="m_cOD-OieFXr8Xbk8-xM-9" value="&lt;b&gt;1416&lt;/b&gt;" style="text;html=1;align=center;verticalAlign=middle;resizable=0;points=[];autosize=1;strokeColor=none;fillColor=none;" vertex="1" parent="1">
          <mxGeometry x="235" y="250" width="50" height="30" as="geometry" />
        </mxCell>
        <mxCell id="m_cOD-OieFXr8Xbk8-xM-10" value="" style="rounded=0;whiteSpace=wrap;html=1;fillColor=#dae8fc;gradientColor=#7ea6e0;strokeColor=#6c8ebf;" vertex="1" parent="1">
          <mxGeometry x="360" y="280" width="180" height="120" as="geometry" />
        </mxCell>
        <mxCell id="m_cOD-OieFXr8Xbk8-xM-11" value="" style="rounded=1;whiteSpace=wrap;html=1;fillColor=#f8cecc;gradientColor=#ea6b66;strokeColor=#b85450;" vertex="1" parent="1">
          <mxGeometry x="430" y="290" width="100" height="40" as="geometry" />
        </mxCell>
        <mxCell id="m_cOD-OieFXr8Xbk8-xM-12" value="&lt;b&gt;Script-1&lt;/b&gt;" style="text;html=1;align=center;verticalAlign=middle;resizable=0;points=[];autosize=1;strokeColor=none;fillColor=none;" vertex="1" parent="1">
          <mxGeometry x="410" y="400" width="70" height="30" as="geometry" />
        </mxCell>
        <mxCell id="m_cOD-OieFXr8Xbk8-xM-13" value="&lt;b&gt;Script-2&lt;/b&gt;" style="text;html=1;align=center;verticalAlign=middle;resizable=0;points=[];autosize=1;strokeColor=none;fillColor=none;" vertex="1" parent="1">
          <mxGeometry x="450" y="325" width="70" height="30" as="geometry" />
        </mxCell>
        <mxCell id="m_cOD-OieFXr8Xbk8-xM-14" value="&lt;b&gt;1415&lt;/b&gt;" style="text;html=1;align=center;verticalAlign=middle;resizable=0;points=[];autosize=1;strokeColor=none;fillColor=none;" vertex="1" parent="1">
          <mxGeometry x="470" y="410" width="50" height="30" as="geometry" />
        </mxCell>
        <mxCell id="m_cOD-OieFXr8Xbk8-xM-15" value="&lt;b&gt;1415&lt;/b&gt;" style="text;html=1;align=center;verticalAlign=middle;resizable=0;points=[];autosize=1;strokeColor=none;fillColor=none;" vertex="1" parent="1">
          <mxGeometry x="390" y="290" width="50" height="30" as="geometry" />
        </mxCell>
      </root>
    </mxGraphModel>
  </diagram>
</mxfile>
